<svg xmlns="http://www.w3.org/2000/svg" width="820" height="204" viewBox="0 0 820 204" font-family="'Segoe UI',Roboto,Helvetica,Arial,sans-serif">
  <rect x="0" y="0" width="820" height="204" rx="14" fill="#111827"/>
  <text x="30" y="34" fill="#f9fafb" font-size="20" font-weight="700">Round Robin (q=2)</text>
  <rect x="30" y="64" width="80" height="60" rx="6" fill="#4f9dde" stroke="#0b1220" stroke-width="2"/>
  <text x="70" y="99" fill="#f9fafb" font-size="15" font-weight="600" text-anchor="middle">P1</text>
  <rect x="110" y="64" width="80" height="60" rx="6" fill="#e8703a" stroke="#0b1220" stroke-width="2"/>
  <text x="150" y="99" fill="#f9fafb" font-size="15" font-weight="600" text-anchor="middle">P2</text>
  <rect x="190" y="64" width="80" height="60" rx="6" fill="#4f9dde" stroke="#0b1220" stroke-width="2"/>
  <text x="230" y="99" fill="#f9fafb" font-size="15" font-weight="600" text-anchor="middle">P1</text>
  <rect x="270" y="64" width="40" height="60" rx="6" fill="#57b26a" stroke="#0b1220" stroke-width="2"/>
  <text x="290" y="99" fill="#f9fafb" font-size="15" font-weight="600" text-anchor="middle">P3</text>
  <rect x="310" y="64" width="80" height="60" rx="6" fill="#e8703a" stroke="#0b1220" stroke-width="2"/>
  <text x="350" y="99" fill="#f9fafb" font-size="15" font-weight="600" text-anchor="middle">P2</text>
  <rect x="390" y="64" width="80" height="60" rx="6" fill="#c65cd6" stroke="#0b1220" stroke-width="2"/>
  <text x="430" y="99" fill="#f9fafb" font-size="15" font-weight="600" text-anchor="middle">P4</text>
  <rect x="470" y="64" width="80" height="60" rx="6" fill="#e0c341" stroke="#0b1220" stroke-width="2"/>
  <text x="510" y="99" fill="#f9fafb" font-size="15" font-weight="600" text-anchor="middle">P5</text>
  <rect x="550" y="64" width="80" height="60" rx="6" fill="#4f9dde" stroke="#0b1220" stroke-width="2"/>
  <text x="590" y="99" fill="#f9fafb" font-size="15" font-weight="600" text-anchor="middle">P1</text>
  <rect x="630" y="64" width="80" height="60" rx="6" fill="#c65cd6" stroke="#0b1220" stroke-width="2"/>
  <text x="670" y="99" fill="#f9fafb" font-size="15" font-weight="600" text-anchor="middle">P4</text>
  <rect x="710" y="64" width="40" height="60" rx="6" fill="#e0c341" stroke="#0b1220" stroke-width="2"/>
  <text x="730" y="99" fill="#f9fafb" font-size="15" font-weight="600" text-anchor="middle">P5</text>
  <rect x="750" y="64" width="40" height="60" rx="6" fill="#4f9dde" stroke="#0b1220" stroke-width="2"/>
  <text x="770" y="99" fill="#f9fafb" font-size="15" font-weight="600" text-anchor="middle">P1</text>
  <line x1="30" y1="130" x2="790" y2="130" stroke="#374151" stroke-width="1.5"/>
  <line x1="30" y1="126" x2="30" y2="136" stroke="#374151" stroke-width="1.5"/>
  <text x="30" y="150" fill="#9ca3af" font-size="13" text-anchor="middle">0</text>
  <line x1="110" y1="126" x2="110" y2="136" stroke="#374151" stroke-width="1.5"/>
  <text x="110" y="150" fill="#9ca3af" font-size="13" text-anchor="middle">2</text>
  <line x1="190" y1="126" x2="190" y2="136" stroke="#374151" stroke-width="1.5"/>
  <text x="190" y="150" fill="#9ca3af" font-size="13" text-anchor="middle">4</text>
  <line x1="270" y1="126" x2="270" y2="136" stroke="#374151" stroke-width="1.5"/>
  <text x="270" y="150" fill="#9ca3af" font-size="13" text-anchor="middle">6</text>
  <line x1="310" y1="126" x2="310" y2="136" stroke="#374151" stroke-width="1.5"/>
  <text x="310" y="150" fill="#9ca3af" font-size="13" text-anchor="middle">7</text>
  <line x1="390" y1="126" x2="390" y2="136" stroke="#374151" stroke-width="1.5"/>
  <text x="390" y="150" fill="#9ca3af" font-size="13" text-anchor="middle">9</text>
  <line x1="470" y1="126" x2="470" y2="136" stroke="#374151" stroke-width="1.5"/>
  <text x="470" y="150" fill="#9ca3af" font-size="13" text-anchor="middle">11</text>
  <line x1="550" y1="126" x2="550" y2="136" stroke="#374151" stroke-width="1.5"/>
  <text x="550" y="150" fill="#9ca3af" font-size="13" text-anchor="middle">13</text>
  <line x1="630" y1="126" x2="630" y2="136" stroke="#374151" stroke-width="1.5"/>
  <text x="630" y="150" fill="#9ca3af" font-size="13" text-anchor="middle">15</text>
  <line x1="710" y1="126" x2="710" y2="136" stroke="#374151" stroke-width="1.5"/>
  <text x="710" y="150" fill="#9ca3af" font-size="13" text-anchor="middle">17</text>
  <line x1="750" y1="126" x2="750" y2="136" stroke="#374151" stroke-width="1.5"/>
  <text x="750" y="150" fill="#9ca3af" font-size="13" text-anchor="middle">18</text>
  <line x1="790" y1="126" x2="790" y2="136" stroke="#374151" stroke-width="1.5"/>
  <text x="790" y="150" fill="#9ca3af" font-size="13" text-anchor="middle">19</text>
  <text x="30" y="186" fill="#9ca3af" font-size="14">avg waiting 6.80    avg turnaround 10.60    avg response 2.20    CPU 100%</text>
</svg>
