<svg xmlns="http://www.w3.org/2000/svg" width="820" height="204" viewBox="0 0 820 204" font-family="'Segoe UI',Roboto,Helvetica,Arial,sans-serif">
  <rect x="0" y="0" width="820" height="204" rx="14" fill="#111827"/>
  <text x="30" y="34" fill="#f9fafb" font-size="20" font-weight="700">Priority (preemptive)</text>
  <rect x="30" y="64" width="80" height="60" rx="6" fill="#4f9dde" stroke="#0b1220" stroke-width="2"/>
  <text x="70" y="99" fill="#f9fafb" font-size="15" font-weight="600" text-anchor="middle">P1</text>
  <rect x="110" y="64" width="160" height="60" rx="6" fill="#e8703a" stroke="#0b1220" stroke-width="2"/>
  <text x="190" y="99" fill="#f9fafb" font-size="15" font-weight="600" text-anchor="middle">P2</text>
  <rect x="270" y="64" width="160" height="60" rx="6" fill="#57b26a" stroke="#0b1220" stroke-width="2"/>
  <text x="350" y="99" fill="#f9fafb" font-size="15" font-weight="600" text-anchor="middle">P4</text>
  <rect x="430" y="64" width="200" height="60" rx="6" fill="#4f9dde" stroke="#0b1220" stroke-width="2"/>
  <text x="530" y="99" fill="#f9fafb" font-size="15" font-weight="600" text-anchor="middle">P1</text>
  <rect x="630" y="64" width="40" height="60" rx="6" fill="#c65cd6" stroke="#0b1220" stroke-width="2"/>
  <text x="650" y="99" fill="#f9fafb" font-size="15" font-weight="600" text-anchor="middle">P3</text>
  <rect x="670" y="64" width="120" height="60" rx="6" fill="#e0c341" stroke="#0b1220" stroke-width="2"/>
  <text x="730" y="99" fill="#f9fafb" font-size="15" font-weight="600" text-anchor="middle">P5</text>
  <line x1="30" y1="130" x2="790" y2="130" stroke="#374151" stroke-width="1.5"/>
  <line x1="30" y1="126" x2="30" y2="136" stroke="#374151" stroke-width="1.5"/>
  <text x="30" y="150" fill="#9ca3af" font-size="13" text-anchor="middle">0</text>
  <line x1="110" y1="126" x2="110" y2="136" stroke="#374151" stroke-width="1.5"/>
  <text x="110" y="150" fill="#9ca3af" font-size="13" text-anchor="middle">2</text>
  <line x1="270" y1="126" x2="270" y2="136" stroke="#374151" stroke-width="1.5"/>
  <text x="270" y="150" fill="#9ca3af" font-size="13" text-anchor="middle">6</text>
  <line x1="430" y1="126" x2="430" y2="136" stroke="#374151" stroke-width="1.5"/>
  <text x="430" y="150" fill="#9ca3af" font-size="13" text-anchor="middle">10</text>
  <line x1="630" y1="126" x2="630" y2="136" stroke="#374151" stroke-width="1.5"/>
  <text x="630" y="150" fill="#9ca3af" font-size="13" text-anchor="middle">15</text>
  <line x1="670" y1="126" x2="670" y2="136" stroke="#374151" stroke-width="1.5"/>
  <text x="670" y="150" fill="#9ca3af" font-size="13" text-anchor="middle">16</text>
  <line x1="790" y1="126" x2="790" y2="136" stroke="#374151" stroke-width="1.5"/>
  <text x="790" y="150" fill="#9ca3af" font-size="13" text-anchor="middle">19</text>
  <text x="30" y="186" fill="#9ca3af" font-size="14">avg waiting 6.00    avg turnaround 9.80    avg response 4.40    CPU 100%</text>
</svg>
