<svg xmlns="http://www.w3.org/2000/svg" width="700" height="286" viewBox="0 0 700 286" font-family="'Segoe UI',Roboto,Helvetica,Arial,sans-serif">
  <rect x="0" y="0" width="700" height="286" rx="14" fill="#111827"/>
  <text x="20" y="34" fill="#f9fafb" font-size="18" font-weight="700">Total head movement by algorithm (lower is better)</text>
  <text x="198" y="75" fill="#e5e7eb" font-size="14" text-anchor="end">FCFS</text>
  <rect x="210" y="58" width="420" height="22" rx="5" fill="#4f9dde"/>
  <text x="638" y="75" fill="#9ca3af" font-size="13">640.00</text>
  <text x="198" y="109" fill="#e5e7eb" font-size="14" text-anchor="end">SSTF</text>
  <rect x="210" y="92" width="155" height="22" rx="5" fill="#e8703a"/>
  <text x="373" y="109" fill="#9ca3af" font-size="13">236.00</text>
  <text x="198" y="143" fill="#e5e7eb" font-size="14" text-anchor="end">SCAN</text>
  <rect x="210" y="126" width="217" height="22" rx="5" fill="#57b26a"/>
  <text x="435" y="143" fill="#9ca3af" font-size="13">331.00</text>
  <text x="198" y="177" fill="#e5e7eb" font-size="14" text-anchor="end">C-SCAN</text>
  <rect x="210" y="160" width="251" height="22" rx="5" fill="#c65cd6"/>
  <text x="469" y="177" fill="#9ca3af" font-size="13">382.00</text>
  <text x="198" y="211" fill="#e5e7eb" font-size="14" text-anchor="end">LOOK</text>
  <rect x="210" y="194" width="196" height="22" rx="5" fill="#e0c341"/>
  <text x="414" y="211" fill="#9ca3af" font-size="13">299.00</text>
  <text x="198" y="245" fill="#e5e7eb" font-size="14" text-anchor="end">C-LOOK</text>
  <rect x="210" y="228" width="211" height="22" rx="5" fill="#3ec9c0"/>
  <text x="429" y="245" fill="#9ca3af" font-size="13">322.00</text>
</svg>
