<svg xmlns="http://www.w3.org/2000/svg" width="820" height="490" viewBox="0 0 820 490" font-family="'Segoe UI',Roboto,Helvetica,Arial,sans-serif">
  <rect x="0" y="0" width="820" height="490" rx="14" fill="#111827"/>
  <text x="50" y="34" fill="#f9fafb" font-size="20" font-weight="700">C-SCAN</text>
  <text x="770" y="34" fill="#9ca3af" font-size="14" text-anchor="end">total head movement: 382</text>
  <line x1="50" y1="70" x2="770" y2="70" stroke="#374151" stroke-width="1.5"/>
  <line x1="50" y1="64" x2="50" y2="70" stroke="#374151" stroke-width="1"/>
  <text x="50" y="60" fill="#9ca3af" font-size="12" text-anchor="middle">0</text>
  <line x1="101" y1="64" x2="101" y2="70" stroke="#374151" stroke-width="1"/>
  <text x="101" y="60" fill="#9ca3af" font-size="12" text-anchor="middle">14</text>
  <line x1="184" y1="64" x2="184" y2="70" stroke="#374151" stroke-width="1"/>
  <text x="184" y="60" fill="#9ca3af" font-size="12" text-anchor="middle">37</text>
  <line x1="242" y1="64" x2="242" y2="70" stroke="#374151" stroke-width="1"/>
  <text x="242" y="60" fill="#9ca3af" font-size="12" text-anchor="middle">53</text>
  <line x1="285" y1="64" x2="285" y2="70" stroke="#374151" stroke-width="1"/>
  <text x="285" y="60" fill="#9ca3af" font-size="12" text-anchor="middle">65</text>
  <line x1="292" y1="64" x2="292" y2="70" stroke="#374151" stroke-width="1"/>
  <text x="292" y="60" fill="#9ca3af" font-size="12" text-anchor="middle">67</text>
  <line x1="405" y1="64" x2="405" y2="70" stroke="#374151" stroke-width="1"/>
  <text x="405" y="60" fill="#9ca3af" font-size="12" text-anchor="middle">98</text>
  <line x1="491" y1="64" x2="491" y2="70" stroke="#374151" stroke-width="1"/>
  <text x="491" y="60" fill="#9ca3af" font-size="12" text-anchor="middle">122</text>
  <line x1="499" y1="64" x2="499" y2="70" stroke="#374151" stroke-width="1"/>
  <text x="499" y="60" fill="#9ca3af" font-size="12" text-anchor="middle">124</text>
  <line x1="712" y1="64" x2="712" y2="70" stroke="#374151" stroke-width="1"/>
  <text x="712" y="60" fill="#9ca3af" font-size="12" text-anchor="middle">183</text>
  <line x1="770" y1="64" x2="770" y2="70" stroke="#374151" stroke-width="1"/>
  <text x="770" y="60" fill="#9ca3af" font-size="12" text-anchor="middle">199</text>
  <line x1="50" y1="70" x2="50" y2="444" stroke="#1f2937" stroke-width="1"/>
  <line x1="101" y1="70" x2="101" y2="444" stroke="#1f2937" stroke-width="1"/>
  <line x1="184" y1="70" x2="184" y2="444" stroke="#1f2937" stroke-width="1"/>
  <line x1="242" y1="70" x2="242" y2="444" stroke="#1f2937" stroke-width="1"/>
  <line x1="285" y1="70" x2="285" y2="444" stroke="#1f2937" stroke-width="1"/>
  <line x1="292" y1="70" x2="292" y2="444" stroke="#1f2937" stroke-width="1"/>
  <line x1="405" y1="70" x2="405" y2="444" stroke="#1f2937" stroke-width="1"/>
  <line x1="491" y1="70" x2="491" y2="444" stroke="#1f2937" stroke-width="1"/>
  <line x1="499" y1="70" x2="499" y2="444" stroke="#1f2937" stroke-width="1"/>
  <line x1="712" y1="70" x2="712" y2="444" stroke="#1f2937" stroke-width="1"/>
  <line x1="770" y1="70" x2="770" y2="444" stroke="#1f2937" stroke-width="1"/>
  <polyline points="242,88 285,122 292,156 405,190 491,224 499,258 712,292 770,326 50,360 101,394 184,428" fill="none" stroke="#4f9dde" stroke-width="2.5"/>
  <circle cx="242" cy="88" r="5" fill="#e0c341"/>
  <text x="252" y="92" fill="#e5e7eb" font-size="12">53</text>
  <circle cx="285" cy="122" r="5" fill="#4f9dde"/>
  <text x="295" y="126" fill="#e5e7eb" font-size="12">65</text>
  <circle cx="292" cy="156" r="5" fill="#4f9dde"/>
  <text x="302" y="160" fill="#e5e7eb" font-size="12">67</text>
  <circle cx="405" cy="190" r="5" fill="#4f9dde"/>
  <text x="415" y="194" fill="#e5e7eb" font-size="12">98</text>
  <circle cx="491" cy="224" r="5" fill="#4f9dde"/>
  <text x="501" y="228" fill="#e5e7eb" font-size="12">122</text>
  <circle cx="499" cy="258" r="5" fill="#4f9dde"/>
  <text x="509" y="262" fill="#e5e7eb" font-size="12">124</text>
  <circle cx="712" cy="292" r="5" fill="#4f9dde"/>
  <text x="722" y="296" fill="#e5e7eb" font-size="12">183</text>
  <circle cx="770" cy="326" r="5" fill="#4f9dde"/>
  <text x="780" y="330" fill="#e5e7eb" font-size="12">199</text>
  <circle cx="50" cy="360" r="5" fill="#4f9dde"/>
  <text x="60" y="364" fill="#e5e7eb" font-size="12">0</text>
  <circle cx="101" cy="394" r="5" fill="#4f9dde"/>
  <text x="111" y="398" fill="#e5e7eb" font-size="12">14</text>
  <circle cx="184" cy="428" r="5" fill="#4f9dde"/>
  <text x="194" y="432" fill="#e5e7eb" font-size="12">37</text>
</svg>
