<svg xmlns="http://www.w3.org/2000/svg" width="794" height="246" viewBox="0 0 794 246" font-family="'Segoe UI',Roboto,Helvetica,Arial,sans-serif">
  <rect x="0" y="0" width="794" height="246" rx="14" fill="#111827"/>
  <text x="20" y="32" fill="#f9fafb" font-size="18" font-weight="700">FIFO page replacement</text>
  <text x="20" y="72" fill="#9ca3af" font-size="12">ref</text>
  <text x="20" y="102" fill="#9ca3af" font-size="12">frame 1</text>
  <text x="20" y="132" fill="#9ca3af" font-size="12">frame 2</text>
  <text x="20" y="162" fill="#9ca3af" font-size="12">frame 3</text>
  <text x="20" y="192" fill="#9ca3af" font-size="12">fault?</text>
  <rect x="94" y="52" width="34" height="30" fill="#16202f" stroke="#0b1220" stroke-width="1"/>
  <text x="111" y="72" fill="#e5e7eb" font-size="13" text-anchor="middle">7</text>
  <rect x="94" y="82" width="34" height="30" fill="#1f2937" stroke="#0b1220" stroke-width="1"/>
  <text x="111" y="102" fill="#e5e7eb" font-size="13" text-anchor="middle">7</text>
  <rect x="94" y="112" width="34" height="30" fill="#1f2937" stroke="#0b1220" stroke-width="1"/>
  <rect x="94" y="142" width="34" height="30" fill="#1f2937" stroke="#0b1220" stroke-width="1"/>
  <rect x="94" y="172" width="34" height="30" fill="#7f1d1d" stroke="#0b1220" stroke-width="1"/>
  <text x="111" y="192" fill="#fee2e2" font-size="13" text-anchor="middle">F</text>
  <rect x="128" y="52" width="34" height="30" fill="#16202f" stroke="#0b1220" stroke-width="1"/>
  <text x="145" y="72" fill="#e5e7eb" font-size="13" text-anchor="middle">0</text>
  <rect x="128" y="82" width="34" height="30" fill="#1f2937" stroke="#0b1220" stroke-width="1"/>
  <text x="145" y="102" fill="#e5e7eb" font-size="13" text-anchor="middle">7</text>
  <rect x="128" y="112" width="34" height="30" fill="#1f2937" stroke="#0b1220" stroke-width="1"/>
  <text x="145" y="132" fill="#e5e7eb" font-size="13" text-anchor="middle">0</text>
  <rect x="128" y="142" width="34" height="30" fill="#1f2937" stroke="#0b1220" stroke-width="1"/>
  <rect x="128" y="172" width="34" height="30" fill="#7f1d1d" stroke="#0b1220" stroke-width="1"/>
  <text x="145" y="192" fill="#fee2e2" font-size="13" text-anchor="middle">F</text>
  <rect x="162" y="52" width="34" height="30" fill="#16202f" stroke="#0b1220" stroke-width="1"/>
  <text x="179" y="72" fill="#e5e7eb" font-size="13" text-anchor="middle">1</text>
  <rect x="162" y="82" width="34" height="30" fill="#1f2937" stroke="#0b1220" stroke-width="1"/>
  <text x="179" y="102" fill="#e5e7eb" font-size="13" text-anchor="middle">7</text>
  <rect x="162" y="112" width="34" height="30" fill="#1f2937" stroke="#0b1220" stroke-width="1"/>
  <text x="179" y="132" fill="#e5e7eb" font-size="13" text-anchor="middle">0</text>
  <rect x="162" y="142" width="34" height="30" fill="#1f2937" stroke="#0b1220" stroke-width="1"/>
  <text x="179" y="162" fill="#e5e7eb" font-size="13" text-anchor="middle">1</text>
  <rect x="162" y="172" width="34" height="30" fill="#7f1d1d" stroke="#0b1220" stroke-width="1"/>
  <text x="179" y="192" fill="#fee2e2" font-size="13" text-anchor="middle">F</text>
  <rect x="196" y="52" width="34" height="30" fill="#16202f" stroke="#0b1220" stroke-width="1"/>
  <text x="213" y="72" fill="#e5e7eb" font-size="13" text-anchor="middle">2</text>
  <rect x="196" y="82" width="34" height="30" fill="#1f2937" stroke="#0b1220" stroke-width="1"/>
  <text x="213" y="102" fill="#e5e7eb" font-size="13" text-anchor="middle">2</text>
  <rect x="196" y="112" width="34" height="30" fill="#1f2937" stroke="#0b1220" stroke-width="1"/>
  <text x="213" y="132" fill="#e5e7eb" font-size="13" text-anchor="middle">0</text>
  <rect x="196" y="142" width="34" height="30" fill="#1f2937" stroke="#0b1220" stroke-width="1"/>
  <text x="213" y="162" fill="#e5e7eb" font-size="13" text-anchor="middle">1</text>
  <rect x="196" y="172" width="34" height="30" fill="#7f1d1d" stroke="#0b1220" stroke-width="1"/>
  <text x="213" y="192" fill="#fee2e2" font-size="13" text-anchor="middle">F</text>
  <rect x="230" y="52" width="34" height="30" fill="#16202f" stroke="#0b1220" stroke-width="1"/>
  <text x="247" y="72" fill="#e5e7eb" font-size="13" text-anchor="middle">0</text>
  <rect x="230" y="82" width="34" height="30" fill="#1f2937" stroke="#0b1220" stroke-width="1"/>
  <text x="247" y="102" fill="#e5e7eb" font-size="13" text-anchor="middle">2</text>
  <rect x="230" y="112" width="34" height="30" fill="#1f2937" stroke="#0b1220" stroke-width="1"/>
  <text x="247" y="132" fill="#e5e7eb" font-size="13" text-anchor="middle">0</text>
  <rect x="230" y="142" width="34" height="30" fill="#1f2937" stroke="#0b1220" stroke-width="1"/>
  <text x="247" y="162" fill="#e5e7eb" font-size="13" text-anchor="middle">1</text>
  <rect x="230" y="172" width="34" height="30" fill="#14532d" stroke="#0b1220" stroke-width="1"/>
  <text x="247" y="192" fill="#dcfce7" font-size="13" text-anchor="middle">H</text>
  <rect x="264" y="52" width="34" height="30" fill="#16202f" stroke="#0b1220" stroke-width="1"/>
  <text x="281" y="72" fill="#e5e7eb" font-size="13" text-anchor="middle">3</text>
  <rect x="264" y="82" width="34" height="30" fill="#1f2937" stroke="#0b1220" stroke-width="1"/>
  <text x="281" y="102" fill="#e5e7eb" font-size="13" text-anchor="middle">2</text>
  <rect x="264" y="112" width="34" height="30" fill="#1f2937" stroke="#0b1220" stroke-width="1"/>
  <text x="281" y="132" fill="#e5e7eb" font-size="13" text-anchor="middle">3</text>
  <rect x="264" y="142" width="34" height="30" fill="#1f2937" stroke="#0b1220" stroke-width="1"/>
  <text x="281" y="162" fill="#e5e7eb" font-size="13" text-anchor="middle">1</text>
  <rect x="264" y="172" width="34" height="30" fill="#7f1d1d" stroke="#0b1220" stroke-width="1"/>
  <text x="281" y="192" fill="#fee2e2" font-size="13" text-anchor="middle">F</text>
  <rect x="298" y="52" width="34" height="30" fill="#16202f" stroke="#0b1220" stroke-width="1"/>
  <text x="315" y="72" fill="#e5e7eb" font-size="13" text-anchor="middle">0</text>
  <rect x="298" y="82" width="34" height="30" fill="#1f2937" stroke="#0b1220" stroke-width="1"/>
  <text x="315" y="102" fill="#e5e7eb" font-size="13" text-anchor="middle">2</text>
  <rect x="298" y="112" width="34" height="30" fill="#1f2937" stroke="#0b1220" stroke-width="1"/>
  <text x="315" y="132" fill="#e5e7eb" font-size="13" text-anchor="middle">3</text>
  <rect x="298" y="142" width="34" height="30" fill="#1f2937" stroke="#0b1220" stroke-width="1"/>
  <text x="315" y="162" fill="#e5e7eb" font-size="13" text-anchor="middle">0</text>
  <rect x="298" y="172" width="34" height="30" fill="#7f1d1d" stroke="#0b1220" stroke-width="1"/>
  <text x="315" y="192" fill="#fee2e2" font-size="13" text-anchor="middle">F</text>
  <rect x="332" y="52" width="34" height="30" fill="#16202f" stroke="#0b1220" stroke-width="1"/>
  <text x="349" y="72" fill="#e5e7eb" font-size="13" text-anchor="middle">4</text>
  <rect x="332" y="82" width="34" height="30" fill="#1f2937" stroke="#0b1220" stroke-width="1"/>
  <text x="349" y="102" fill="#e5e7eb" font-size="13" text-anchor="middle">4</text>
  <rect x="332" y="112" width="34" height="30" fill="#1f2937" stroke="#0b1220" stroke-width="1"/>
  <text x="349" y="132" fill="#e5e7eb" font-size="13" text-anchor="middle">3</text>
  <rect x="332" y="142" width="34" height="30" fill="#1f2937" stroke="#0b1220" stroke-width="1"/>
  <text x="349" y="162" fill="#e5e7eb" font-size="13" text-anchor="middle">0</text>
  <rect x="332" y="172" width="34" height="30" fill="#7f1d1d" stroke="#0b1220" stroke-width="1"/>
  <text x="349" y="192" fill="#fee2e2" font-size="13" text-anchor="middle">F</text>
  <rect x="366" y="52" width="34" height="30" fill="#16202f" stroke="#0b1220" stroke-width="1"/>
  <text x="383" y="72" fill="#e5e7eb" font-size="13" text-anchor="middle">2</text>
  <rect x="366" y="82" width="34" height="30" fill="#1f2937" stroke="#0b1220" stroke-width="1"/>
  <text x="383" y="102" fill="#e5e7eb" font-size="13" text-anchor="middle">4</text>
  <rect x="366" y="112" width="34" height="30" fill="#1f2937" stroke="#0b1220" stroke-width="1"/>
  <text x="383" y="132" fill="#e5e7eb" font-size="13" text-anchor="middle">2</text>
  <rect x="366" y="142" width="34" height="30" fill="#1f2937" stroke="#0b1220" stroke-width="1"/>
  <text x="383" y="162" fill="#e5e7eb" font-size="13" text-anchor="middle">0</text>
  <rect x="366" y="172" width="34" height="30" fill="#7f1d1d" stroke="#0b1220" stroke-width="1"/>
  <text x="383" y="192" fill="#fee2e2" font-size="13" text-anchor="middle">F</text>
  <rect x="400" y="52" width="34" height="30" fill="#16202f" stroke="#0b1220" stroke-width="1"/>
  <text x="417" y="72" fill="#e5e7eb" font-size="13" text-anchor="middle">3</text>
  <rect x="400" y="82" width="34" height="30" fill="#1f2937" stroke="#0b1220" stroke-width="1"/>
  <text x="417" y="102" fill="#e5e7eb" font-size="13" text-anchor="middle">4</text>
  <rect x="400" y="112" width="34" height="30" fill="#1f2937" stroke="#0b1220" stroke-width="1"/>
  <text x="417" y="132" fill="#e5e7eb" font-size="13" text-anchor="middle">2</text>
  <rect x="400" y="142" width="34" height="30" fill="#1f2937" stroke="#0b1220" stroke-width="1"/>
  <text x="417" y="162" fill="#e5e7eb" font-size="13" text-anchor="middle">3</text>
  <rect x="400" y="172" width="34" height="30" fill="#7f1d1d" stroke="#0b1220" stroke-width="1"/>
  <text x="417" y="192" fill="#fee2e2" font-size="13" text-anchor="middle">F</text>
  <rect x="434" y="52" width="34" height="30" fill="#16202f" stroke="#0b1220" stroke-width="1"/>
  <text x="451" y="72" fill="#e5e7eb" font-size="13" text-anchor="middle">0</text>
  <rect x="434" y="82" width="34" height="30" fill="#1f2937" stroke="#0b1220" stroke-width="1"/>
  <text x="451" y="102" fill="#e5e7eb" font-size="13" text-anchor="middle">0</text>
  <rect x="434" y="112" width="34" height="30" fill="#1f2937" stroke="#0b1220" stroke-width="1"/>
  <text x="451" y="132" fill="#e5e7eb" font-size="13" text-anchor="middle">2</text>
  <rect x="434" y="142" width="34" height="30" fill="#1f2937" stroke="#0b1220" stroke-width="1"/>
  <text x="451" y="162" fill="#e5e7eb" font-size="13" text-anchor="middle">3</text>
  <rect x="434" y="172" width="34" height="30" fill="#7f1d1d" stroke="#0b1220" stroke-width="1"/>
  <text x="451" y="192" fill="#fee2e2" font-size="13" text-anchor="middle">F</text>
  <rect x="468" y="52" width="34" height="30" fill="#16202f" stroke="#0b1220" stroke-width="1"/>
  <text x="485" y="72" fill="#e5e7eb" font-size="13" text-anchor="middle">3</text>
  <rect x="468" y="82" width="34" height="30" fill="#1f2937" stroke="#0b1220" stroke-width="1"/>
  <text x="485" y="102" fill="#e5e7eb" font-size="13" text-anchor="middle">0</text>
  <rect x="468" y="112" width="34" height="30" fill="#1f2937" stroke="#0b1220" stroke-width="1"/>
  <text x="485" y="132" fill="#e5e7eb" font-size="13" text-anchor="middle">2</text>
  <rect x="468" y="142" width="34" height="30" fill="#1f2937" stroke="#0b1220" stroke-width="1"/>
  <text x="485" y="162" fill="#e5e7eb" font-size="13" text-anchor="middle">3</text>
  <rect x="468" y="172" width="34" height="30" fill="#14532d" stroke="#0b1220" stroke-width="1"/>
  <text x="485" y="192" fill="#dcfce7" font-size="13" text-anchor="middle">H</text>
  <rect x="502" y="52" width="34" height="30" fill="#16202f" stroke="#0b1220" stroke-width="1"/>
  <text x="519" y="72" fill="#e5e7eb" font-size="13" text-anchor="middle">2</text>
  <rect x="502" y="82" width="34" height="30" fill="#1f2937" stroke="#0b1220" stroke-width="1"/>
  <text x="519" y="102" fill="#e5e7eb" font-size="13" text-anchor="middle">0</text>
  <rect x="502" y="112" width="34" height="30" fill="#1f2937" stroke="#0b1220" stroke-width="1"/>
  <text x="519" y="132" fill="#e5e7eb" font-size="13" text-anchor="middle">2</text>
  <rect x="502" y="142" width="34" height="30" fill="#1f2937" stroke="#0b1220" stroke-width="1"/>
  <text x="519" y="162" fill="#e5e7eb" font-size="13" text-anchor="middle">3</text>
  <rect x="502" y="172" width="34" height="30" fill="#14532d" stroke="#0b1220" stroke-width="1"/>
  <text x="519" y="192" fill="#dcfce7" font-size="13" text-anchor="middle">H</text>
  <rect x="536" y="52" width="34" height="30" fill="#16202f" stroke="#0b1220" stroke-width="1"/>
  <text x="553" y="72" fill="#e5e7eb" font-size="13" text-anchor="middle">1</text>
  <rect x="536" y="82" width="34" height="30" fill="#1f2937" stroke="#0b1220" stroke-width="1"/>
  <text x="553" y="102" fill="#e5e7eb" font-size="13" text-anchor="middle">0</text>
  <rect x="536" y="112" width="34" height="30" fill="#1f2937" stroke="#0b1220" stroke-width="1"/>
  <text x="553" y="132" fill="#e5e7eb" font-size="13" text-anchor="middle">1</text>
  <rect x="536" y="142" width="34" height="30" fill="#1f2937" stroke="#0b1220" stroke-width="1"/>
  <text x="553" y="162" fill="#e5e7eb" font-size="13" text-anchor="middle">3</text>
  <rect x="536" y="172" width="34" height="30" fill="#7f1d1d" stroke="#0b1220" stroke-width="1"/>
  <text x="553" y="192" fill="#fee2e2" font-size="13" text-anchor="middle">F</text>
  <rect x="570" y="52" width="34" height="30" fill="#16202f" stroke="#0b1220" stroke-width="1"/>
  <text x="587" y="72" fill="#e5e7eb" font-size="13" text-anchor="middle">2</text>
  <rect x="570" y="82" width="34" height="30" fill="#1f2937" stroke="#0b1220" stroke-width="1"/>
  <text x="587" y="102" fill="#e5e7eb" font-size="13" text-anchor="middle">0</text>
  <rect x="570" y="112" width="34" height="30" fill="#1f2937" stroke="#0b1220" stroke-width="1"/>
  <text x="587" y="132" fill="#e5e7eb" font-size="13" text-anchor="middle">1</text>
  <rect x="570" y="142" width="34" height="30" fill="#1f2937" stroke="#0b1220" stroke-width="1"/>
  <text x="587" y="162" fill="#e5e7eb" font-size="13" text-anchor="middle">2</text>
  <rect x="570" y="172" width="34" height="30" fill="#7f1d1d" stroke="#0b1220" stroke-width="1"/>
  <text x="587" y="192" fill="#fee2e2" font-size="13" text-anchor="middle">F</text>
  <rect x="604" y="52" width="34" height="30" fill="#16202f" stroke="#0b1220" stroke-width="1"/>
  <text x="621" y="72" fill="#e5e7eb" font-size="13" text-anchor="middle">0</text>
  <rect x="604" y="82" width="34" height="30" fill="#1f2937" stroke="#0b1220" stroke-width="1"/>
  <text x="621" y="102" fill="#e5e7eb" font-size="13" text-anchor="middle">0</text>
  <rect x="604" y="112" width="34" height="30" fill="#1f2937" stroke="#0b1220" stroke-width="1"/>
  <text x="621" y="132" fill="#e5e7eb" font-size="13" text-anchor="middle">1</text>
  <rect x="604" y="142" width="34" height="30" fill="#1f2937" stroke="#0b1220" stroke-width="1"/>
  <text x="621" y="162" fill="#e5e7eb" font-size="13" text-anchor="middle">2</text>
  <rect x="604" y="172" width="34" height="30" fill="#14532d" stroke="#0b1220" stroke-width="1"/>
  <text x="621" y="192" fill="#dcfce7" font-size="13" text-anchor="middle">H</text>
  <rect x="638" y="52" width="34" height="30" fill="#16202f" stroke="#0b1220" stroke-width="1"/>
  <text x="655" y="72" fill="#e5e7eb" font-size="13" text-anchor="middle">1</text>
  <rect x="638" y="82" width="34" height="30" fill="#1f2937" stroke="#0b1220" stroke-width="1"/>
  <text x="655" y="102" fill="#e5e7eb" font-size="13" text-anchor="middle">0</text>
  <rect x="638" y="112" width="34" height="30" fill="#1f2937" stroke="#0b1220" stroke-width="1"/>
  <text x="655" y="132" fill="#e5e7eb" font-size="13" text-anchor="middle">1</text>
  <rect x="638" y="142" width="34" height="30" fill="#1f2937" stroke="#0b1220" stroke-width="1"/>
  <text x="655" y="162" fill="#e5e7eb" font-size="13" text-anchor="middle">2</text>
  <rect x="638" y="172" width="34" height="30" fill="#14532d" stroke="#0b1220" stroke-width="1"/>
  <text x="655" y="192" fill="#dcfce7" font-size="13" text-anchor="middle">H</text>
  <rect x="672" y="52" width="34" height="30" fill="#16202f" stroke="#0b1220" stroke-width="1"/>
  <text x="689" y="72" fill="#e5e7eb" font-size="13" text-anchor="middle">7</text>
  <rect x="672" y="82" width="34" height="30" fill="#1f2937" stroke="#0b1220" stroke-width="1"/>
  <text x="689" y="102" fill="#e5e7eb" font-size="13" text-anchor="middle">7</text>
  <rect x="672" y="112" width="34" height="30" fill="#1f2937" stroke="#0b1220" stroke-width="1"/>
  <text x="689" y="132" fill="#e5e7eb" font-size="13" text-anchor="middle">1</text>
  <rect x="672" y="142" width="34" height="30" fill="#1f2937" stroke="#0b1220" stroke-width="1"/>
  <text x="689" y="162" fill="#e5e7eb" font-size="13" text-anchor="middle">2</text>
  <rect x="672" y="172" width="34" height="30" fill="#7f1d1d" stroke="#0b1220" stroke-width="1"/>
  <text x="689" y="192" fill="#fee2e2" font-size="13" text-anchor="middle">F</text>
  <rect x="706" y="52" width="34" height="30" fill="#16202f" stroke="#0b1220" stroke-width="1"/>
  <text x="723" y="72" fill="#e5e7eb" font-size="13" text-anchor="middle">0</text>
  <rect x="706" y="82" width="34" height="30" fill="#1f2937" stroke="#0b1220" stroke-width="1"/>
  <text x="723" y="102" fill="#e5e7eb" font-size="13" text-anchor="middle">7</text>
  <rect x="706" y="112" width="34" height="30" fill="#1f2937" stroke="#0b1220" stroke-width="1"/>
  <text x="723" y="132" fill="#e5e7eb" font-size="13" text-anchor="middle">0</text>
  <rect x="706" y="142" width="34" height="30" fill="#1f2937" stroke="#0b1220" stroke-width="1"/>
  <text x="723" y="162" fill="#e5e7eb" font-size="13" text-anchor="middle">2</text>
  <rect x="706" y="172" width="34" height="30" fill="#7f1d1d" stroke="#0b1220" stroke-width="1"/>
  <text x="723" y="192" fill="#fee2e2" font-size="13" text-anchor="middle">F</text>
  <rect x="740" y="52" width="34" height="30" fill="#16202f" stroke="#0b1220" stroke-width="1"/>
  <text x="757" y="72" fill="#e5e7eb" font-size="13" text-anchor="middle">1</text>
  <rect x="740" y="82" width="34" height="30" fill="#1f2937" stroke="#0b1220" stroke-width="1"/>
  <text x="757" y="102" fill="#e5e7eb" font-size="13" text-anchor="middle">7</text>
  <rect x="740" y="112" width="34" height="30" fill="#1f2937" stroke="#0b1220" stroke-width="1"/>
  <text x="757" y="132" fill="#e5e7eb" font-size="13" text-anchor="middle">0</text>
  <rect x="740" y="142" width="34" height="30" fill="#1f2937" stroke="#0b1220" stroke-width="1"/>
  <text x="757" y="162" fill="#e5e7eb" font-size="13" text-anchor="middle">1</text>
  <rect x="740" y="172" width="34" height="30" fill="#7f1d1d" stroke="#0b1220" stroke-width="1"/>
  <text x="757" y="192" fill="#fee2e2" font-size="13" text-anchor="middle">F</text>
  <text x="20" y="232" fill="#9ca3af" font-size="13">page faults 15    page hits 5    hit ratio 25%</text>
</svg>
